<svg xmlns="http://www.w3.org/2000/svg" width="16" height="16" fill="none"><g fill="#000" clip-path="url(#a)"><path d="M10.107 13.992q.056.474.008.95-.108.033-.22.053c-.093.009-.187 0-.28 0h-7.44a1.21 1.21 0 0 1-1.127-.968A2.7 2.7 0 0 1 1 13.47V2.494a2.6 2.6 0 0 1 .044-.517 1.18 1.18 0 0 1 1.117-.97c.133-.007.266-.006.4-.006h8.84a1.3 1.3 0 0 1 1 .416q1.076 1.074 2.15 2.153a1.43 1.43 0 0 1 .432 1.042c0 .427.012.854.013 1.282v2.644c.018.191-.006.384-.07.565-.291.056-.59.063-.885.02-.12-.11-.09-.236-.09-.353V6.727c0-.654-.008-1.31 0-1.963a.63.63 0 0 0-.2-.5 218 218 0 0 1-2.037-2.04.68.68 0 0 0-.53-.211q-4.339.006-8.678 0c-.439 0-.46.023-.46.488v10.896c0 .554.01.566.552.566h6.958c.172.01.343.022.551.029"/><path d="M6.623 5.95c-.852 0-1.705-.02-2.557.006a.7.7 0 0 1-.814-.79c.01-.386 0-.772 0-1.158q0-.16.04-.315a.56.56 0 0 1 .476-.426q.2-.024.4-.016h4.954q.16-.002.32.007a.58.58 0 0 1 .558.48q.032.116.035.236c0 .413.006.826 0 1.238q-.003.181-.067.35a.55.55 0 0 1-.51.382c-.107.005-.214 0-.32 0zm3.211 4.469a1.86 1.86 0 0 1-1.843 1.858 1.877 1.877 0 0 1-1.839-1.867 1.9 1.9 0 0 1 1.853-1.858 1.846 1.846 0 0 1 1.83 1.867m1.605 4.7-.706-.7a.4.4 0 0 1-.132-.279.38.38 0 0 1 .127-.274c.236-.236.48-.48.726-.723a.33.33 0 0 1 .335-.107.338.338 0 0 1 .14.587l-.173.174h2.726a.4.4 0 0 1 .3.1.33.33 0 0 1 .094.24.32.32 0 0 1-.314.33.4.4 0 0 1-.062 0h-2.75l.042.042.131.131a.4.4 0 0 1 .131.273.32.32 0 0 1-.1.227.33.33 0 0 1-.233.1.4.4 0 0 1-.282-.122m2.208-1.711a.33.33 0 0 1 .031-.5l.143-.143.034-.033h-2.76a.37.37 0 0 1-.281-.1.33.33 0 0 1-.088-.24.31.31 0 0 1 .276-.317 1 1 0 0 1 .162-.007h2.689l-.2-.2a.327.327 0 0 1-.037-.45.343.343 0 0 1 .445-.082h.007a.6.6 0 0 1 .092.08q.348.342.693.687a.42.42 0 0 1 .146.291.4.4 0 0 1-.145.288l-.523.522-.183.18a.37.37 0 0 1-.268.121.32.32 0 0 1-.232-.1z"/></g><defs><clipPath id="a"><path fill="#fff" d="M0 0h16v16H0z"/></clipPath></defs></svg>